<svg xmlns="http://www.w3.org/2000/svg" xmlns:xlink="http://www.w3.org/1999/xlink" width="500" zoomAndPan="magnify" viewBox="0 0 375 374.999991" height="500" preserveAspectRatio="xMidYMid meet" version="1.0"><path fill="#000000" d="M 182.667969 50.949219 C 182.605469 51.175781 182.261719 52.679688 181.910156 54.289062 C 181.558594 55.902344 181.1875 57.550781 181.089844 57.953125 C 180.886719 58.78125 180.417969 61.019531 180.1875 62.253906 C 180.101562 62.710938 179.820312 64.152344 179.554688 65.460938 C 179.292969 66.769531 178.996094 68.253906 178.894531 68.757812 C 178.796875 69.257812 178.628906 70.25 178.523438 70.953125 C 178.136719 73.542969 177.800781 75.605469 177.246094 78.828125 C 176.933594 80.640625 176.5625 82.824219 176.421875 83.679688 C 176.09375 85.6875 175.714844 87.847656 175.25 90.363281 C 175.046875 91.46875 174.460938 94.847656 173.945312 97.867188 C 172.636719 105.570312 171.476562 111.328125 171.011719 112.40625 C 170.714844 113.097656 170.308594 113.570312 169.402344 114.300781 C 168.730469 114.835938 168.160156 115.410156 168.128906 115.578125 C 167.996094 116.253906 170.765625 122.347656 171.34375 122.65625 C 171.628906 122.808594 171.765625 122.785156 171.96875 122.539062 C 173.316406 120.929688 174.113281 118.351562 175.515625 111.054688 C 176.402344 106.449219 177.34375 101.753906 177.945312 98.96875 C 178.175781 97.875 178.390625 96.773438 178.59375 95.671875 C 181.128906 81.402344 181.203125 80.933594 181.644531 76.722656 C 181.753906 75.664062 181.882812 74.632812 181.925781 74.433594 C 182.003906 74.078125 182.179688 72.605469 182.558594 69.03125 C 182.949219 65.40625 183.140625 65.632812 183.640625 70.3125 C 184.667969 79.875 184.988281 82.226562 185.9375 87.15625 C 186.359375 89.359375 186.730469 91.371094 186.941406 92.652344 C 187.054688 93.304688 187.355469 94.953125 187.617188 96.3125 C 188.179688 99.234375 188.074219 98.691406 189.058594 103.730469 C 189.492188 105.945312 189.898438 108.085938 189.960938 108.488281 C 190.023438 108.894531 190.15625 109.59375 190.257812 110.046875 C 190.359375 110.5 190.734375 112.394531 191.089844 114.257812 C 191.941406 118.699219 193.625 123.046875 194.496094 123.046875 C 194.867188 123.046875 195.640625 121.535156 197.339844 117.484375 L 198.175781 115.496094 L 197.460938 114.875 C 197.066406 114.53125 196.535156 114.136719 196.273438 113.992188 C 195.34375 113.476562 194.523438 111.382812 193.902344 107.941406 C 193.753906 107.117188 193.605469 106.292969 193.453125 105.46875 C 192.859375 102.242188 191.882812 96.835938 191.632812 95.398438 C 191.050781 92 190.800781 90.515625 190.707031 89.90625 C 190.652344 89.550781 190.234375 87.164062 189.777344 84.59375 C 189.320312 82.027344 188.832031 79.226562 188.691406 78.367188 C 188.464844 76.992188 188.207031 75.523438 187.046875 68.9375 C 186.777344 67.425781 186.480469 65.882812 185.496094 60.882812 C 184.863281 57.671875 183.472656 51.003906 183.382812 50.765625 C 183.246094 50.390625 182.789062 50.507812 182.667969 50.949219 M 130.453125 73.226562 C 129.945312 73.519531 129.417969 73.890625 129.285156 74.050781 C 129 74.394531 129.097656 75.191406 129.613281 76.8125 C 130.613281 79.953125 131.421875 82.699219 134.324219 92.742188 C 134.671875 93.953125 135.199219 95.683594 135.492188 96.589844 C 135.785156 97.496094 136.613281 100.089844 137.335938 102.355469 C 138.058594 104.621094 138.882812 107.09375 139.164062 107.847656 C 139.445312 108.605469 139.96875 110.046875 140.320312 111.054688 L 140.964844 112.882812 L 141.164062 118.835938 C 141.273438 122.109375 141.359375 126.144531 141.359375 127.808594 C 141.355469 130.707031 141.589844 133.742188 141.933594 135.160156 C 142.058594 135.6875 142.429688 136.113281 143.679688 137.171875 C 146.25 139.355469 147.339844 140.816406 148.667969 143.851562 C 149.058594 144.746094 150.046875 146.582031 150.863281 147.9375 C 151.78125 149.449219 152.285156 150.460938 152.179688 150.566406 C 152.078125 150.671875 151.777344 150.660156 151.398438 150.539062 C 151.0625 150.429688 150.167969 150.21875 149.414062 150.066406 C 147.898438 149.765625 142.09375 148.679688 141.988281 148.679688 C 141.835938 148.679688 140.992188 147.054688 140.652344 146.117188 C 140.453125 145.5625 139.914062 143.898438 139.449219 142.417969 C 138.984375 140.9375 138.527344 139.679688 138.433594 139.621094 C 138.335938 139.5625 137.398438 139.4375 136.351562 139.347656 C 135.300781 139.253906 133.894531 139.050781 133.222656 138.894531 C 130.324219 138.222656 123.855469 135 115.722656 130.179688 C 113.558594 128.894531 110.714844 127.242188 109.40625 126.507812 C 108.097656 125.773438 106.117188 124.601562 105.011719 123.902344 C 103.902344 123.203125 101.800781 121.914062 100.339844 121.039062 C 96.964844 119.015625 88.027344 113.585938 85.503906 112.019531 C 83.183594 110.582031 81.75 109.839844 81.597656 109.992188 C 81.265625 110.324219 81.671875 110.933594 83.585938 112.996094 C 84.746094 114.246094 85.691406 115.414062 85.691406 115.597656 C 85.691406 115.902344 85.558594 115.917969 83.953125 115.800781 C 82.324219 115.679688 82.214844 115.695312 82.21875 116.019531 C 82.21875 116.351562 83.132812 117.421875 88.957031 123.953125 C 91.851562 127.195312 97.058594 132.871094 101.0625 137.144531 C 102.429688 138.605469 104.371094 140.707031 105.371094 141.816406 C 106.371094 142.921875 107.773438 144.453125 108.480469 145.210938 C 111.632812 148.589844 116.121094 153.914062 117.296875 155.675781 C 118.523438 157.507812 119.816406 160.589844 120.664062 163.695312 C 121.152344 165.496094 120.601562 165.3125 125.738281 165.378906 C 130.441406 165.4375 130.921875 165.414062 130.921875 165.132812 C 130.921875 164.792969 124.171875 156.9375 119.289062 151.597656 C 117.777344 149.945312 115.574219 147.503906 114.390625 146.175781 C 113.207031 144.847656 111.488281 142.949219 110.570312 141.964844 C 109.648438 140.976562 107.164062 138.191406 105.042969 135.773438 C 99.640625 129.617188 97.183594 126.886719 94.070312 123.578125 C 91.695312 121.054688 91.097656 120.300781 91.46875 120.300781 C 91.660156 120.300781 93.132812 121.101562 94.664062 122.042969 C 95.519531 122.566406 98.199219 124.132812 100.617188 125.523438 C 103.035156 126.914062 105.300781 128.230469 105.652344 128.453125 C 106.558594 129.027344 111.292969 131.78125 113.25 132.871094 C 114.15625 133.375 117.226562 135.183594 120.070312 136.886719 C 122.917969 138.589844 126.332031 140.601562 127.660156 141.355469 C 136.363281 146.300781 138.34375 147.746094 144.378906 153.539062 C 147.996094 157.015625 150.503906 159.214844 151.839844 160.097656 C 153.175781 160.976562 152.972656 161.402344 151.472656 160.875 C 149.808594 160.285156 142.285156 156.988281 141.265625 156.402344 C 139.953125 155.644531 133.941406 151.207031 122.300781 142.414062 C 120.933594 141.378906 119.285156 140.148438 118.636719 139.675781 C 117.992188 139.203125 116.84375 138.335938 116.089844 137.742188 C 114.503906 136.503906 109.136719 132.996094 108.265625 132.632812 C 107.707031 132.398438 107.640625 132.414062 107.078125 132.914062 C 106.5625 133.378906 106.507812 133.507812 106.664062 133.914062 C 106.871094 134.457031 110.535156 138.308594 121.75 149.78125 C 133.160156 161.449219 134.523438 162.773438 138.003906 165.589844 C 141.695312 168.578125 143.027344 170.039062 142.742188 170.785156 C 142.5625 171.25 141.222656 170.96875 137.816406 169.746094 C 134.804688 168.667969 133.300781 168.378906 133.023438 168.828125 C 132.957031 168.933594 133.296875 169.613281 133.777344 170.339844 C 134.257812 171.066406 134.859375 171.976562 135.105469 172.359375 C 135.355469 172.742188 136.496094 173.953125 137.636719 175.046875 C 139.664062 177 139.890625 177.292969 139.535156 177.515625 C 139.242188 177.699219 135.113281 177.109375 134.03125 176.734375 C 133.480469 176.539062 131.625 175.675781 129.914062 174.816406 C 128.203125 173.953125 126.183594 173.003906 125.425781 172.699219 C 124.671875 172.398438 123.230469 171.785156 122.222656 171.335938 C 119.265625 170.023438 119.167969 170.003906 118.246094 170.535156 C 116.773438 171.390625 113.183594 172.65625 108.582031 173.953125 C 107.605469 174.226562 106.628906 174.503906 105.652344 174.78125 C 104.75 175.046875 99.699219 176.289062 97.230469 176.855469 C 96.371094 177.050781 94.808594 177.347656 93.75 177.515625 C 92.691406 177.679688 91.457031 177.894531 91.003906 177.988281 C 90.199219 178.152344 80 179.820312 77.636719 180.175781 C 74.183594 180.691406 72.695312 180.90625 71.867188 181.007812 C 70.3125 181.199219 66.777344 181.773438 65.0625 182.113281 C 64.226562 182.277344 64.085938 182.640625 64.085938 184.632812 C 64.085938 185.976562 64.164062 186.609375 64.355469 186.882812 C 64.75 187.449219 65.679688 187.652344 74.25 189.050781 C 77.070312 189.507812 80.035156 190.007812 80.839844 190.160156 C 81.648438 190.308594 84.613281 190.804688 87.433594 191.257812 C 94.066406 192.320312 95.6875 192.660156 97.988281 193.453125 C 99.03125 193.8125 101.777344 194.730469 104.09375 195.492188 C 110.183594 197.496094 110.75 197.769531 112.75 199.652344 C 113.523438 200.382812 113.832031 200.554688 114.3125 200.535156 C 115.019531 200.511719 120.789062 198.589844 122.878906 197.6875 C 123.679688 197.34375 124.890625 196.730469 125.570312 196.332031 C 133.675781 191.5625 132.585938 191.996094 136.320312 192.050781 C 139.828125 192.105469 141.386719 192.257812 141.484375 192.554688 C 141.554688 192.761719 141.273438 192.894531 137.238281 194.546875 C 134.589844 195.632812 131.226562 197.535156 131.136719 197.996094 C 131.101562 198.1875 131.273438 198.382812 131.59375 198.519531 C 131.878906 198.644531 132.144531 198.769531 132.1875 198.800781 C 132.40625 198.957031 131.074219 200.027344 130.148438 200.441406 C 128.257812 201.289062 128.304688 201.773438 130.273438 201.78125 C 132.835938 201.785156 137.210938 201.199219 139.320312 200.5625 C 140.464844 200.21875 141.453125 199.984375 141.511719 200.046875 C 141.847656 200.382812 140.792969 201.4375 138.3125 203.246094 C 137.828125 203.597656 136.648438 204.546875 135.6875 205.355469 C 132.863281 207.730469 129.996094 210.066406 129.058594 210.753906 C 128.207031 211.378906 123.777344 214.941406 123.597656 215.148438 C 123.429688 215.335938 120.230469 217.980469 119.046875 218.90625 C 118.40625 219.410156 117.542969 220.097656 117.125 220.4375 C 115.625 221.664062 112.308594 224.082031 110.925781 224.964844 C 105.203125 228.605469 104.390625 229.171875 103.582031 230.109375 C 103.277344 230.460938 103.273438 230.542969 103.527344 231.152344 C 103.695312 231.550781 103.925781 231.8125 104.121094 231.8125 C 105.867188 231.8125 119.015625 226.441406 128.996094 221.648438 C 132.894531 219.78125 140.375 216.449219 141.816406 215.941406 C 143.4375 215.371094 145.75 215.144531 145.75 215.558594 C 145.75 215.710938 145.15625 216.25 144.425781 216.753906 C 143.695312 217.257812 142.480469 218.316406 141.722656 219.105469 C 138.234375 222.75 137.667969 223.109375 131.652344 225.5 C 124.589844 228.304688 112.988281 231.835938 103.363281 234.109375 C 100.601562 234.761719 95.757812 236.230469 91.644531 237.664062 C 87.101562 239.246094 85.140625 239.769531 85.410156 239.332031 C 85.46875 239.238281 87.140625 238.152344 89.128906 236.914062 C 100.230469 230.015625 104.601562 226.648438 112.890625 218.613281 C 119.804688 211.910156 121.0625 210.828125 125.25 208.007812 C 128.679688 205.699219 129.359375 205.09375 128.964844 204.695312 C 128.726562 204.457031 119.570312 204.785156 119.070312 205.050781 C 118.863281 205.160156 117.765625 206.511719 116.632812 208.050781 C 113.4375 212.386719 108.804688 216.800781 102.082031 221.921875 C 100.972656 222.761719 99.613281 223.839844 99.058594 224.308594 C 98.507812 224.777344 97.433594 225.589844 96.679688 226.117188 C 93.777344 228.128906 89.238281 231.363281 86.394531 233.449219 C 85.214844 234.3125 82.242188 236.402344 79.78125 238.101562 C 75.070312 241.347656 73.617188 242.511719 73.902344 242.796875 C 74.066406 242.960938 75.675781 242.765625 79.003906 242.171875 C 79.808594 242.027344 80.527344 241.949219 80.605469 242 C 80.683594 242.046875 80.75 242.40625 80.75 242.796875 C 80.75 244.40625 81.191406 244.71875 82.671875 244.148438 C 83.074219 243.992188 83.980469 243.714844 84.6875 243.535156 C 85.574219 243.300781 86.460938 243.058594 87.339844 242.800781 C 88.4375 242.484375 89.535156 242.175781 90.636719 241.871094 C 91.695312 241.582031 94.621094 240.71875 97.136719 239.953125 C 99.65625 239.183594 104.269531 237.820312 107.390625 236.917969 C 110.511719 236.011719 114.09375 234.945312 115.34375 234.546875 C 118.6875 233.476562 123.046875 232.433594 125.296875 232.164062 C 127.054688 231.949219 127.527344 231.960938 129.542969 232.25 C 130.789062 232.429688 131.976562 232.523438 132.179688 232.460938 C 132.386719 232.394531 133.113281 231.667969 133.796875 230.847656 C 134.480469 230.023438 135.371094 229.0625 135.773438 228.707031 C 137.003906 227.625 137.867188 226.65625 138.875 225.21875 C 140.046875 223.546875 140.757812 222.953125 144.136719 220.804688 C 145.578125 219.886719 146.992188 218.972656 147.277344 218.773438 C 148.359375 218.019531 148.203125 218.417969 145.195312 224.121094 C 144.480469 225.480469 143.816406 226.671875 143.722656 226.765625 C 143.628906 226.863281 143.554688 227.089844 143.554688 227.269531 C 143.554688 227.761719 144.21875 227.679688 145.386719 227.042969 C 149.210938 224.953125 152.972656 223.394531 153.328125 223.75 C 153.550781 223.972656 151.9375 227.570312 151.152344 228.585938 C 150.375 229.597656 149.148438 230.214844 146.222656 231.070312 C 144.820312 231.480469 143.511719 231.957031 143.320312 232.132812 C 142.871094 232.539062 142.644531 232.980469 141.71875 235.28125 L 140.960938 237.160156 L 141.351562 238.597656 C 141.730469 240.007812 141.730469 240.070312 141.425781 241.648438 C 141.164062 242.980469 141.09375 244.828125 141.003906 252.410156 L 140.898438 261.566406 L 139.582031 264.679688 C 138.097656 268.199219 135.46875 275.625 132.230469 285.460938 C 131.019531 289.136719 129.773438 292.878906 129.457031 293.773438 C 128.660156 296.054688 128.722656 296.390625 130.097656 297.128906 C 130.699219 297.453125 131.300781 297.722656 131.433594 297.722656 C 131.867188 297.734375 132.539062 296.871094 136.351562 291.414062 C 139.132812 287.429688 140.40625 285.644531 144.726562 279.695312 C 147.136719 276.371094 150.417969 271.753906 152.015625 269.441406 C 153.613281 267.125 155.78125 264.035156 156.839844 262.574219 C 158.613281 260.121094 159.699219 258.574219 161.863281 255.414062 C 162.316406 254.746094 163.09375 253.636719 163.585938 252.941406 C 165.359375 250.449219 165.367188 250.417969 165.246094 247.386719 C 165.085938 243.371094 165.015625 243.246094 163.941406 244.949219 C 161.789062 248.363281 158.496094 253.171875 156.53125 255.78125 C 154.023438 259.109375 153.457031 259.875 151.960938 261.964844 C 151.394531 262.753906 149.550781 265.292969 147.863281 267.609375 C 146.171875 269.925781 143.839844 273.261719 142.675781 275.023438 C 140.054688 278.996094 137.34375 282.898438 137.203125 282.898438 C 136.980469 282.898438 137.367188 281 138.050781 278.75 C 139.074219 275.378906 141.292969 268.785156 142 267.007812 C 142.648438 265.386719 143.910156 263.128906 144.171875 263.125 C 144.324219 263.121094 144.242188 264.820312 143.988281 267.105469 C 143.882812 268.03125 143.972656 268.214844 144.390625 267.925781 C 144.566406 267.804688 150.03125 259.628906 151.703125 256.988281 C 154.222656 253.011719 156.164062 249.683594 159.996094 242.796875 C 161.691406 239.746094 161.472656 240.101562 164.179688 236.023438 C 166.660156 232.28125 168.757812 229.550781 169.023438 229.71875 C 169.269531 229.871094 169.046875 231.449219 168.515625 233.277344 C 167.761719 235.886719 167.730469 239.777344 168.46875 239.777344 C 168.613281 239.777344 169.0625 239.160156 169.464844 238.402344 C 169.867188 237.648438 170.304688 237.03125 170.433594 237.03125 C 171.101562 237.03125 175.242188 247.976562 177.359375 255.339844 C 178.464844 259.167969 178.78125 260.523438 179.191406 263.121094 C 179.976562 268.101562 180.453125 272.015625 181.449219 281.617188 C 181.65625 283.578125 181.902344 285.371094 182.003906 285.597656 C 182.152344 285.945312 182.324219 286.011719 183.09375 286.011719 C 184.164062 286.011719 184.078125 286.25 184.386719 282.441406 C 185.222656 272.238281 186.753906 261.839844 188.058594 257.539062 C 188.269531 256.832031 188.507812 256.007812 188.585938 255.707031 C 188.789062 254.910156 189.777344 251.734375 190.84375 248.472656 C 192.585938 243.136719 195.164062 237.019531 195.609375 237.167969 C 195.726562 237.210938 196.15625 237.792969 196.5625 238.46875 C 197.585938 240.179688 197.828125 240.066406 197.902344 237.851562 C 197.972656 235.675781 197.6875 233.648438 197.019531 231.570312 C 196.589844 230.222656 196.546875 229.941406 196.769531 229.855469 C 197.121094 229.71875 197.5625 230.136719 198.929688 231.902344 C 200.945312 234.5 204.570312 240.234375 207.546875 245.542969 C 210.421875 250.675781 211.785156 252.984375 214.433594 257.21875 C 216.949219 261.246094 220.558594 266.898438 221.097656 267.65625 C 221.671875 268.460938 221.773438 268.144531 221.71875 265.78125 C 221.65625 263.226562 221.816406 262.746094 222.425781 263.613281 C 223.085938 264.546875 223.875 266.296875 224.472656 268.15625 C 224.796875 269.164062 225.75 272.089844 226.59375 274.65625 C 228.644531 280.925781 229.121094 282.78125 228.765625 283.136719 C 228.648438 283.253906 227.285156 281.238281 224.941406 277.496094 C 224.25 276.386719 223.339844 274.988281 222.921875 274.382812 C 222.203125 273.339844 219.429688 269.371094 218.070312 267.4375 C 217.722656 266.941406 215.796875 264.347656 213.792969 261.671875 C 207.957031 253.871094 206.226562 251.414062 202.804688 246.046875 C 201.921875 244.664062 201.132812 243.53125 201.054688 243.53125 C 200.75 243.53125 200.683594 244.1875 200.683594 247.164062 C 200.683594 250.113281 200.699219 250.246094 201.167969 251.128906 C 201.753906 252.234375 203.613281 254.949219 206.8125 259.367188 C 208.125 261.179688 209.339844 262.871094 209.511719 263.121094 C 209.683594 263.375 210.136719 264.015625 210.519531 264.546875 C 211.496094 265.921875 212.472656 267.292969 213.449219 268.667969 C 214.871094 270.667969 216.300781 272.667969 217.734375 274.65625 C 220.742188 278.828125 224.894531 284.691406 226.613281 287.199219 C 227.4375 288.410156 228.707031 290.222656 229.425781 291.230469 C 230.148438 292.234375 231.347656 293.925781 232.089844 294.984375 C 232.832031 296.039062 233.597656 297.109375 233.789062 297.355469 L 234.140625 297.804688 L 235.277344 297.355469 C 235.898438 297.109375 236.574219 296.730469 236.773438 296.519531 C 237.242188 296.019531 237.113281 295.421875 235.679688 291.445312 C 235.089844 289.816406 233.027344 283.703125 231.089844 277.863281 C 228.867188 271.167969 227.058594 266.058594 226.195312 264.039062 L 224.828125 260.832031 L 224.839844 252.136719 C 224.851562 244.046875 224.828125 243.335938 224.488281 241.972656 C 224.035156 240.148438 224.035156 240.113281 224.507812 238.75 C 225.011719 237.300781 224.914062 236.632812 223.855469 234.195312 C 223.398438 233.136719 223.023438 232.261719 223.023438 232.246094 C 223.023438 232.144531 221.34375 231.582031 220.0625 231.257812 C 217.804688 230.683594 215.304688 229.453125 214.832031 228.679688 C 213.484375 226.480469 212.421875 223.753906 212.90625 223.753906 C 213.382812 223.753906 216.78125 225.121094 219.234375 226.300781 C 221.78125 227.519531 222.65625 227.8125 222.65625 227.445312 C 222.65625 227.359375 222.3125 226.761719 221.894531 226.117188 C 221.480469 225.472656 220.726562 224.121094 220.222656 223.113281 C 219.71875 222.105469 218.988281 220.734375 218.601562 220.0625 C 218.210938 219.390625 217.894531 218.792969 217.894531 218.734375 C 217.894531 218.472656 218.414062 218.710938 220.328125 219.851562 C 224.71875 222.464844 226.074219 223.535156 227.601562 225.585938 C 227.9375 226.039062 228.964844 227.191406 229.878906 228.148438 C 230.792969 229.105469 232.078125 230.496094 232.734375 231.242188 L 233.925781 232.59375 L 235.691406 232.386719 C 240.246094 231.847656 243.625 232.371094 250.945312 234.734375 C 253.945312 235.703125 255.347656 236.125 257.996094 236.851562 C 258.953125 237.113281 261.382812 237.820312 263.398438 238.421875 C 274.378906 241.707031 280.832031 243.519531 283.503906 244.074219 C 284.6875 244.316406 285.09375 244.164062 285.097656 243.460938 C 285.105469 242.472656 285.285156 242.25 286.078125 242.25 C 286.492188 242.25 287.125 242.328125 287.476562 242.421875 C 288.304688 242.644531 292.269531 243.007812 292.40625 242.871094 C 292.636719 242.640625 289.6875 240.40625 284.363281 236.78125 C 282.699219 235.652344 280.847656 234.363281 280.242188 233.917969 C 279.636719 233.472656 278.816406 232.878906 278.410156 232.597656 C 274.753906 230.042969 266.90625 224.269531 264.265625 222.195312 C 263.4375 221.542969 262.046875 220.453125 261.179688 219.773438 C 256.710938 216.269531 253.410156 213.121094 250.90625 209.964844 C 247.972656 206.269531 247.105469 205.226562 246.839844 205.085938 C 246.683594 205 245.234375 204.878906 243.621094 204.816406 C 242.011719 204.757812 239.992188 204.664062 239.136719 204.613281 C 236.195312 204.441406 236.417969 204.957031 240.550781 207.859375 C 244.558594 210.671875 246.152344 212.058594 253.875 219.449219 C 259.101562 224.453125 259.953125 225.191406 264.128906 228.328125 C 268.777344 231.824219 271.316406 233.539062 276.472656 236.664062 C 281.996094 240.011719 281.917969 240.171875 275.730469 238.195312 C 267.011719 235.410156 264.488281 234.667969 258.949219 233.261719 C 251.757812 231.4375 248.695312 230.542969 240.234375 227.789062 C 238.285156 227.152344 233.734375 225.347656 230.664062 223.992188 C 228.054688 222.839844 226.691406 221.824219 224.3125 219.269531 C 223.5625 218.464844 222.429688 217.363281 221.792969 216.828125 C 220.5 215.734375 220.34375 215.332031 221.210938 215.332031 C 223.160156 215.332031 227.660156 217.109375 235.109375 220.820312 C 237.472656 222 240.769531 223.5625 242.433594 224.296875 C 244.09375 225.027344 246.195312 225.957031 247.101562 226.359375 C 254.109375 229.488281 258.21875 231.046875 260.632812 231.503906 C 261.824219 231.730469 262.058594 231.730469 262.382812 231.503906 C 262.589844 231.359375 262.757812 231.078125 262.757812 230.882812 C 262.757812 230.292969 261.433594 229.035156 259.800781 228.070312 C 256.355469 226.035156 250.816406 222.0625 246.644531 218.636719 C 245.585938 217.765625 244.390625 216.816406 243.988281 216.519531 C 243.585938 216.222656 242.710938 215.527344 242.046875 214.96875 C 241.378906 214.414062 240.117188 213.382812 239.238281 212.675781 C 236.984375 210.871094 234.265625 208.632812 231.816406 206.570312 C 230.660156 205.597656 229.136719 204.359375 228.429688 203.816406 C 225.695312 201.714844 224.257812 200.300781 224.558594 200.003906 C 224.613281 199.949219 225.09375 200.070312 225.625 200.277344 C 227.757812 201.105469 231.105469 201.597656 234.59375 201.597656 C 235.800781 201.597656 236.78125 201.519531 236.84375 201.417969 C 236.90625 201.320312 236.683594 201.078125 236.351562 200.878906 C 235.789062 200.539062 235.226562 200.195312 234.664062 199.847656 L 233.582031 199.179688 L 234.292969 198.582031 C 234.914062 198.058594 234.972656 197.941406 234.761719 197.683594 C 234.414062 197.269531 231.488281 195.71875 229.523438 194.910156 C 227.007812 193.875 225.035156 192.835938 225.035156 192.542969 C 225.035156 192.179688 226.035156 192.066406 229.710938 192.023438 L 232.828125 191.984375 L 234.195312 192.789062 C 239.757812 196.046875 240.179688 196.285156 242.25 197.3125 C 243.910156 198.136719 245.300781 198.644531 248.65625 199.652344 C 252.257812 200.738281 252.292969 200.734375 253.785156 199.300781 C 255.292969 197.851562 256.429688 197.335938 262.804688 195.234375 C 271.273438 192.441406 269.625 192.839844 280.425781 190.984375 C 282.238281 190.675781 284.382812 190.296875 285.1875 190.144531 C 285.992188 189.992188 287.640625 189.714844 288.847656 189.527344 C 296.417969 188.351562 301.03125 187.46875 301.507812 187.101562 C 302.027344 186.703125 301.894531 182.980469 301.339844 182.425781 C 301.078125 182.164062 299.191406 181.792969 294.066406 180.996094 C 293.109375 180.847656 291.546875 180.601562 290.589844 180.449219 C 289.632812 180.300781 288.023438 180.054688 287.019531 179.90625 C 286.011719 179.761719 284.402344 179.515625 283.449219 179.363281 C 282.492188 179.210938 280.429688 178.886719 278.871094 178.640625 C 270.207031 177.277344 263.539062 175.8125 255.980469 173.621094 C 252.980469 172.746094 248.421875 171.132812 247.59375 170.644531 C 246.742188 170.144531 246.386719 170.1875 244.429688 171.039062 C 243.484375 171.453125 242.128906 171.996094 241.425781 172.25 C 240.71875 172.503906 238.453125 173.5625 236.390625 174.597656 C 234.324219 175.636719 232.121094 176.65625 231.492188 176.867188 C 230.078125 177.339844 226.5 177.617188 226.5 177.25 C 226.5 177.125 227.242188 176.320312 228.148438 175.464844 C 229.054688 174.613281 230.371094 173.152344 231.070312 172.222656 C 231.769531 171.292969 232.683594 170.222656 233.097656 169.847656 C 234.074219 168.964844 233.984375 168.539062 232.859375 168.707031 L 230.9375 168.992188 C 230.308594 169.085938 228.6875 169.539062 227.335938 170 C 224.574219 170.941406 223.171875 171.136719 223.058594 170.597656 C 222.96875 170.164062 226.40625 166.738281 228.425781 165.25 C 229.230469 164.65625 230.546875 163.539062 231.355469 162.765625 C 234.246094 160 255.429688 138.375 257.078125 136.503906 C 257.613281 135.902344 258.367188 135.09375 258.753906 134.714844 C 259.523438 133.957031 259.609375 133.597656 259.175781 132.976562 C 258.265625 131.679688 255.9375 133.113281 243.347656 142.734375 C 241.683594 144.003906 238.71875 146.203125 236.753906 147.628906 C 232.582031 150.648438 230.789062 151.964844 227.527344 154.402344 C 225.941406 155.585938 224.398438 156.546875 222.9375 157.261719 C 220.398438 158.5 215.949219 160.4375 214.875 160.769531 C 214.472656 160.894531 213.960938 161.066406 213.738281 161.148438 C 213.203125 161.351562 212.992188 161.007812 213.4375 160.660156 C 213.625 160.511719 214.144531 160.132812 214.601562 159.820312 C 215.75 159.019531 217.351562 157.652344 219.164062 155.921875 C 221.183594 153.996094 221.292969 153.886719 222.457031 152.632812 C 223.863281 151.125 227.035156 148.371094 228.488281 147.398438 C 231.1875 145.59375 235.242188 143.066406 237.578125 141.726562 C 238.6875 141.09375 241.363281 139.527344 243.53125 138.246094 C 248.222656 135.472656 250.734375 134.03125 252.960938 132.835938 C 253.867188 132.351562 255.433594 131.445312 256.4375 130.824219 C 259.832031 128.738281 263.390625 126.578125 264.496094 125.9375 C 265.101562 125.585938 266.292969 124.882812 267.152344 124.375 C 268.007812 123.871094 269.058594 123.277344 269.484375 123.066406 C 269.910156 122.851562 271.082031 122.183594 272.085938 121.578125 C 273.953125 120.457031 274.476562 120.277344 274.476562 120.753906 C 274.476562 120.902344 272.972656 122.574219 271.132812 124.464844 C 267.785156 127.910156 265.382812 130.5625 262.296875 134.214844 C 261.390625 135.285156 259.890625 136.984375 258.964844 137.984375 C 258.039062 138.984375 256.308594 140.878906 255.121094 142.195312 C 253.933594 143.511719 251.722656 145.933594 250.214844 147.578125 C 248.703125 149.21875 246.40625 151.769531 245.109375 153.238281 C 242.488281 156.214844 239.859375 159.183594 237.214844 162.140625 C 235.335938 164.242188 234.75 165.050781 234.960938 165.257812 C 235.140625 165.4375 244.472656 165.390625 244.652344 165.210938 C 244.746094 165.117188 245.15625 163.953125 245.554688 162.628906 C 247.042969 157.722656 248.734375 154.996094 253.871094 149.230469 C 254.996094 147.972656 256.519531 146.242188 257.257812 145.386719 C 258 144.53125 259.480469 142.921875 260.546875 141.816406 C 262.671875 139.605469 269.371094 132.328125 271.65625 129.746094 C 272.453125 128.847656 274.378906 126.707031 275.941406 124.984375 C 279.882812 120.636719 283.628906 116.222656 283.628906 115.921875 C 283.628906 115.65625 283.109375 115.59375 281.570312 115.6875 C 280.53125 115.753906 280.152344 115.714844 280.152344 115.550781 C 280.152344 115.429688 280.847656 114.574219 281.699219 113.648438 C 283.609375 111.578125 284.351562 110.605469 284.359375 110.167969 C 284.363281 109.875 284.214844 109.914062 283.21875 110.472656 C 281.675781 111.335938 269.488281 118.6875 267.425781 119.996094 C 266.519531 120.574219 264.746094 121.648438 263.488281 122.390625 C 262.230469 123.128906 259.882812 124.511719 258.269531 125.464844 C 256.660156 126.417969 254.023438 127.957031 252.410156 128.890625 C 250.800781 129.820312 248.574219 131.121094 247.46875 131.78125 C 246.359375 132.4375 244.175781 133.671875 242.613281 134.519531 C 236.441406 137.867188 233.019531 139.183594 229.527344 139.542969 C 228.144531 139.6875 227.621094 139.816406 227.402344 140.066406 C 227.246094 140.25 226.632812 141.871094 226.042969 143.671875 C 224.449219 148.53125 224.359375 148.667969 222.472656 149.019531 C 218.871094 149.6875 216.167969 150.203125 215.074219 150.433594 C 214.378906 150.578125 213.761719 150.652344 213.703125 150.59375 C 213.648438 150.535156 213.730469 150.269531 213.894531 149.996094 C 214.054688 149.726562 214.738281 148.597656 215.410156 147.492188 C 216.082031 146.382812 217.050781 144.613281 217.5625 143.554688 C 218.851562 140.890625 219.289062 140.296875 221.84375 137.769531 L 224.082031 135.554688 L 224.210938 133.925781 C 224.28125 133.027344 224.410156 131.964844 224.5 131.5625 C 224.589844 131.160156 224.667969 128.523438 224.675781 125.703125 C 224.679688 122.882812 224.753906 118.804688 224.839844 116.636719 C 224.984375 112.855469 225.011719 112.636719 225.582031 111.054688 C 227.445312 105.84375 229.1875 100.558594 230.621094 95.765625 C 231.214844 93.777344 231.816406 91.796875 232.425781 89.8125 C 232.980469 88 233.90625 84.910156 234.476562 82.945312 C 235.050781 80.984375 235.761719 78.550781 236.058594 77.546875 C 236.355469 76.539062 236.644531 75.339844 236.699219 74.882812 L 236.796875 74.054688 L 235.722656 73.375 C 235.132812 73 234.5625 72.691406 234.453125 72.691406 C 234.121094 72.691406 233.554688 73.433594 232.351562 75.441406 C 231.71875 76.496094 230.976562 77.691406 230.703125 78.09375 C 230.433594 78.496094 229.734375 79.570312 229.15625 80.476562 C 228.574219 81.382812 226.648438 84.324219 224.875 87.011719 C 223.101562 89.703125 220.5625 93.617188 219.230469 95.710938 C 218.015625 97.621094 216.800781 99.53125 215.585938 101.441406 C 214.777344 102.714844 213.972656 103.992188 213.179688 105.277344 C 211.785156 107.539062 204.460938 118.527344 202.25 121.671875 L 200.707031 123.871094 L 200.695312 127.292969 C 200.683594 130.710938 200.769531 131.199219 201.308594 130.75 C 201.441406 130.640625 202.402344 129.128906 203.445312 127.394531 C 205.867188 123.355469 207.09375 121.441406 208.285156 119.84375 C 208.8125 119.136719 209.628906 117.984375 210.097656 117.28125 C 210.917969 116.050781 212.550781 113.910156 215.863281 109.707031 C 217.984375 107.023438 219.246094 105.105469 220.988281 101.9375 C 221.804688 100.449219 222.953125 98.429688 223.539062 97.453125 C 224.125 96.472656 225.175781 94.664062 225.875 93.429688 C 226.570312 92.195312 227.429688 90.792969 227.785156 90.316406 C 228.410156 89.464844 228.425781 89.457031 228.480469 89.945312 C 228.550781 90.546875 227.796875 93.234375 225.367188 101.074219 C 223.738281 106.328125 222.246094 110.34375 221.734375 110.859375 C 221.367188 111.226562 221.339844 110.722656 221.648438 109.144531 C 221.972656 107.457031 221.910156 106.113281 221.507812 106.246094 C 221.394531 106.285156 220.636719 107.425781 219.824219 108.777344 C 219.011719 110.128906 217.945312 111.855469 217.449219 112.609375 C 216.957031 113.363281 215.714844 115.382812 214.691406 117.097656 C 213.664062 118.808594 212.277344 121.09375 211.605469 122.179688 C 210.933594 123.261719 210 124.828125 209.535156 125.660156 C 209.011719 126.589844 208.484375 127.519531 207.953125 128.449219 C 207.550781 129.152344 206.875 130.390625 206.449219 131.195312 C 205.441406 133.105469 203.238281 136.738281 202.171875 138.246094 C 201.710938 138.898438 200.859375 140.144531 200.285156 141.011719 C 198.652344 143.472656 196.839844 145.292969 196.839844 144.472656 C 196.839844 144.375 197.046875 143.675781 197.300781 142.917969 C 197.695312 141.738281 197.78125 141.082031 197.878906 138.335938 C 197.984375 135.417969 197.96875 135.132812 197.6875 135.132812 C 197.339844 135.132812 196.976562 135.675781 195.882812 137.832031 C 195.460938 138.664062 195.066406 139.34375 195.003906 139.34375 C 194.882812 139.34375 193.617188 136.476562 191.96875 132.472656 C 190.261719 128.328125 187.453125 118.175781 186.675781 113.34375 C 186.5 112.242188 186.316406 111.144531 186.132812 110.046875 C 185.609375 106.941406 185.480469 105.855469 185.125 101.714844 C 184.925781 99.398438 184.679688 96.804688 184.578125 95.945312 C 184.476562 95.089844 184.34375 93.632812 184.277344 92.707031 C 184.140625 90.765625 183.757812 89.90625 183.03125 89.90625 C 182.078125 89.90625 181.972656 90.210938 181.644531 93.839844 C 180.597656 105.503906 180.230469 108.648438 179.273438 114.261719 C 178.953125 116.113281 178.558594 117.734375 177.511719 121.492188 C 176.976562 123.402344 176.324219 125.777344 176.066406 126.761719 C 175.804688 127.746094 175.152344 129.640625 174.609375 130.972656 C 171.761719 137.957031 171.210938 139.25 171.046875 139.304688 C 170.945312 139.335938 170.480469 138.621094 170.011719 137.710938 C 169.015625 135.78125 168.542969 135.132812 168.140625 135.132812 C 167.882812 135.132812 167.863281 135.464844 167.96875 138.105469 C 168.085938 141.027344 168.320312 142.40625 168.933594 143.773438 C 169.097656 144.144531 169.179688 144.59375 169.113281 144.765625 C 168.6875 145.878906 162.863281 137.316406 158.195312 128.722656 C 156.621094 125.828125 153.328125 120.289062 150.785156 116.273438 C 148.484375 112.632812 146.820312 109.945312 145.792969 108.214844 C 144.910156 106.722656 144.507812 106.199219 144.242188 106.199219 C 144.050781 106.199219 144.164062 109.445312 144.382812 110.273438 C 144.605469 111.136719 144.1875 110.839844 143.585938 109.710938 C 143.050781 108.707031 141.019531 102.976562 140.265625 100.339844 C 140.078125 99.6875 139.640625 98.164062 139.289062 96.953125 C 137.5 90.796875 137.242188 89.605469 137.742188 89.765625 C 138.058594 89.867188 143.445312 98.816406 144.960938 101.765625 C 146.117188 104.011719 148.65625 107.816406 150.4375 109.964844 C 153.390625 113.535156 159.984375 123.027344 162.964844 128 C 164.222656 130.101562 164.566406 130.554688 164.910156 130.554688 C 165.144531 130.554688 165.175781 130.074219 165.125 127.203125 L 165.070312 123.851562 L 161.757812 118.824219 C 159.9375 116.0625 157.894531 112.933594 157.214844 111.878906 C 156.535156 110.820312 155.222656 108.828125 154.300781 107.453125 C 153.375 106.078125 152.046875 104.058594 151.351562 102.96875 C 149.964844 100.796875 146.691406 95.734375 143.9375 91.511719 C 142.738281 89.667969 141.542969 87.820312 140.351562 85.96875 C 139.039062 83.933594 137.726562 81.902344 136.40625 79.875 C 135.246094 78.089844 133.851562 75.894531 133.308594 74.996094 C 132.347656 73.402344 131.792969 72.691406 131.515625 72.695312 C 131.441406 72.695312 130.960938 72.933594 130.453125 73.226562 M 144.652344 116.238281 C 144.652344 117.476562 146.289062 126.238281 147.671875 132.386719 C 147.871094 133.296875 148.054688 134.214844 148.222656 135.132812 C 149.179688 140.496094 149.476562 141.898438 149.796875 142.625 C 150.042969 143.1875 150.882812 144.15625 152.414062 145.65625 C 153.652344 146.867188 154.914062 148.179688 155.214844 148.574219 C 156.03125 149.640625 156.246094 149.363281 156.101562 147.425781 C 155.972656 145.730469 155.613281 143.011719 155.167969 140.351562 C 154.679688 137.445312 152.117188 130.347656 148.460938 121.765625 C 146.839844 117.96875 146.441406 117.175781 145.734375 116.371094 C 145.039062 115.582031 144.652344 115.53125 144.652344 116.238281 M 219.945312 116.640625 C 219.011719 118.0625 218.59375 118.980469 216.507812 124.167969 C 212.667969 133.703125 211.085938 138.277344 210.558594 141.339844 C 209.980469 144.730469 209.660156 149.046875 209.996094 149.046875 C 210.203125 149.046875 214.695312 144.601562 215.558594 143.539062 C 216.238281 142.703125 216.28125 142.574219 217.152344 138.703125 C 217.519531 137.066406 219.425781 127.441406 220.179688 123.414062 C 220.53125 121.535156 220.980469 118.433594 221.132812 116.867188 C 221.230469 115.824219 221.210938 115.722656 220.894531 115.722656 C 220.675781 115.722656 220.316406 116.070312 219.945312 116.640625 M 177.15625 154.066406 C 171.710938 154.976562 166.414062 157.402344 161.773438 161.113281 C 157.945312 164.171875 155.238281 167.320312 152.296875 172.121094 C 150.34375 175.320312 150.097656 175.914062 148.933594 180.265625 C 147.332031 186.253906 147.292969 191.425781 148.792969 197.753906 C 150.082031 203.195312 152.03125 207.171875 155.570312 211.578125 C 157.667969 214.191406 161.148438 217.34375 163.863281 219.09375 C 166.234375 220.617188 171.28125 222.964844 173.652344 223.644531 C 179.34375 225.277344 187.953125 225.117188 193.632812 223.28125 C 195.597656 222.644531 199.953125 220.535156 201.824219 219.316406 C 208.789062 214.773438 214.011719 208.152344 216.300781 200.957031 C 217.449219 197.355469 217.808594 195.4375 218.09375 191.410156 C 218.414062 186.898438 218.207031 184.957031 216.777344 179.027344 C 216.097656 176.21875 215.460938 174.804688 213.417969 171.570312 C 211.167969 168.015625 209.699219 166.152344 207.414062 163.949219 C 201.972656 158.710938 196.902344 155.996094 189.441406 154.328125 C 187.277344 153.84375 179.480469 153.679688 177.15625 154.066406 M 179.167969 156.925781 C 175.902344 157.28125 172.933594 158.089844 170.042969 159.410156 C 166.425781 161.058594 164.636719 162.152344 161.953125 164.34375 C 157.246094 168.191406 154.246094 172.691406 151.914062 179.394531 C 150.769531 182.671875 150.433594 184.992188 150.4375 189.515625 C 150.441406 193.023438 150.496094 193.707031 150.921875 195.832031 C 151.460938 198.507812 152.578125 201.898438 153.566406 203.859375 C 155.707031 208.121094 159.734375 212.761719 164.179688 216.089844 C 169.539062 220.105469 176.972656 222.339844 184.007812 222.050781 C 187.113281 221.921875 189.074219 221.601562 192.042969 220.734375 C 196.175781 219.53125 197.957031 218.703125 201.363281 216.390625 C 207.335938 212.339844 211.824219 206.585938 213.851562 200.375 C 214.765625 197.585938 215.421875 194.550781 215.703125 191.847656 C 216.097656 188.046875 215.484375 183.507812 213.976562 178.984375 C 212.289062 173.9375 209.992188 170.234375 206.1875 166.433594 C 203.296875 163.542969 201.835938 162.40625 199.308594 161.089844 C 194.496094 158.582031 192.183594 157.722656 188.78125 157.167969 C 186.734375 156.835938 181.257812 156.695312 179.167969 156.925781 M 121.125 174.707031 C 120.191406 174.878906 118.773438 175.195312 116.636719 175.71875 C 113.664062 176.441406 106.394531 178.792969 101.164062 180.71875 C 98.734375 181.613281 98.472656 181.671875 96.039062 181.835938 C 92.839844 182.046875 89.496094 182.410156 84.320312 183.109375 C 77.925781 183.972656 74.332031 184.558594 74.03125 184.792969 C 73.757812 185.007812 73.90625 185.421875 74.308594 185.574219 C 74.808594 185.765625 77.234375 186.179688 79.101562 186.390625 C 80.058594 186.5 81.625 186.6875 82.582031 186.804688 C 85.054688 187.117188 92.007812 187.117188 92.320312 186.804688 C 92.65625 186.46875 92.335938 186.3125 90.816406 186.058594 C 89.34375 185.816406 88.5625 185.546875 88.695312 185.332031 C 88.75 185.246094 89.597656 185.121094 90.585938 185.058594 C 91.648438 184.988281 93.386719 184.683594 94.863281 184.3125 C 96.542969 183.886719 98.355469 183.589844 100.449219 183.390625 C 102.152344 183.226562 104.410156 182.980469 105.46875 182.835938 C 106.527344 182.695312 108.503906 182.445312 109.863281 182.277344 C 112.089844 182.011719 113.421875 181.828125 119.382812 180.992188 C 122.371094 180.570312 124.726562 180.207031 126.34375 179.910156 C 127.199219 179.753906 127.972656 179.625 128.0625 179.625 C 128.148438 179.625 128.179688 179.316406 128.128906 178.933594 C 127.898438 177.21875 126.332031 175.03125 125.085938 174.6875 C 124.292969 174.464844 122.394531 174.476562 121.125 174.707031 M 240.675781 174.761719 C 239.746094 175.164062 238.550781 176.816406 237.941406 178.535156 C 237.738281 179.121094 237.734375 179.269531 237.941406 179.4375 C 238.347656 179.777344 247.445312 181.234375 255.066406 182.179688 C 255.921875 182.285156 257.488281 182.496094 258.542969 182.644531 C 260.421875 182.910156 263.558594 183.257812 267.609375 183.652344 C 268.714844 183.757812 270.398438 184.050781 271.347656 184.296875 C 272.34375 184.558594 273.914062 184.800781 275.0625 184.871094 C 276.15625 184.9375 277.09375 185.0625 277.148438 185.148438 C 277.273438 185.351562 276.617188 185.589844 275.480469 185.746094 C 274.980469 185.816406 274.261719 185.953125 273.886719 186.050781 C 273.292969 186.207031 273.226562 186.277344 273.355469 186.625 C 273.582031 187.242188 274.316406 187.328125 277.585938 187.125 C 282.675781 186.816406 291.21875 185.867188 291.71875 185.558594 C 291.957031 185.410156 291.894531 185.003906 291.601562 184.757812 C 291.453125 184.632812 290.195312 184.378906 288.808594 184.1875 C 287.050781 183.949219 285.292969 183.707031 283.539062 183.460938 C 276.832031 182.523438 272.894531 182.066406 269.5 181.828125 C 267.285156 181.675781 266.800781 181.578125 265.289062 180.988281 C 263.132812 180.144531 252.636719 176.699219 250.25 176.050781 C 245.148438 174.664062 241.902344 174.226562 240.675781 174.761719 M 97.566406 189.722656 C 97.074219 189.902344 96.78125 190.332031 96.957031 190.617188 C 97.050781 190.769531 97.449219 190.859375 100.617188 191.425781 C 107.683594 192.699219 113.074219 193.589844 117.1875 194.175781 C 118.34375 194.339844 119.699219 194.554688 120.195312 194.652344 C 120.691406 194.75 121.804688 194.882812 122.667969 194.945312 C 124.714844 195.089844 125.75 194.683594 127.097656 193.207031 C 128.4375 191.742188 128.636719 191.40625 128.355469 191.070312 C 128.230469 190.917969 127.984375 190.796875 127.808594 190.796875 C 127.632812 190.796875 126.59375 190.597656 125.496094 190.351562 C 124.402344 190.109375 122.402344 189.820312 121.050781 189.710938 C 117.96875 189.464844 98.25 189.472656 97.566406 189.722656 M 245.453125 189.71875 C 240.5625 190.261719 237.914062 190.792969 237.730469 191.265625 C 237.476562 191.929688 239.476562 193.960938 241.089844 194.675781 C 241.828125 195 242.1875 195.042969 243.535156 194.953125 C 244.402344 194.898438 245.601562 194.761719 246.199219 194.65625 C 246.796875 194.546875 249.839844 194.046875 252.960938 193.542969 C 256.082031 193.039062 260.738281 192.222656 263.304688 191.730469 C 265.875 191.242188 268.367188 190.78125 268.84375 190.714844 C 269.324219 190.644531 269.714844 190.507812 269.714844 190.410156 C 269.714844 190.308594 269.40625 190.085938 269.027344 189.917969 C 268.410156 189.636719 267.28125 189.601562 257.628906 189.582031 C 251.738281 189.566406 246.257812 189.628906 245.453125 189.71875 M 152.957031 229.039062 C 152.46875 229.429688 151.863281 229.972656 151.613281 230.25 C 151.359375 230.523438 150.921875 230.867188 150.640625 231.015625 C 149.632812 231.539062 148.703125 232.558594 148.335938 233.535156 C 147.550781 235.636719 146.414062 241.792969 145.847656 247.007812 C 145.691406 248.46875 145.398438 251.117188 145.199219 252.890625 C 144.738281 257.003906 144.734375 257.261719 145.191406 257.261719 C 145.382812 257.261719 145.71875 257.015625 145.933594 256.714844 C 146.5625 255.835938 148.054688 252.519531 149.730469 248.292969 C 152.300781 241.792969 153.636719 237.355469 153.984375 234.152344 C 154.21875 231.96875 154.234375 228.574219 154.007812 228.433594 C 153.917969 228.378906 153.445312 228.652344 152.957031 229.039062 M 211.976562 228.453125 C 211.90625 228.523438 211.851562 229.90625 211.851562 231.535156 C 211.851562 234.769531 212.09375 236.300781 213.160156 239.867188 C 214.292969 243.65625 218.550781 254.335938 219.789062 256.484375 C 220.1875 257.179688 220.769531 257.28125 220.859375 256.667969 C 220.988281 255.75 220.191406 246.640625 219.71875 243.621094 C 218.910156 238.488281 217.878906 233.683594 217.40625 232.875 C 217.214844 232.542969 216.398438 231.820312 215.597656 231.269531 C 214.796875 230.71875 213.71875 229.835938 213.203125 229.300781 C 212.226562 228.292969 212.175781 228.253906 211.976562 228.453125 M 170.492188 253.84375 C 169.910156 254.785156 167.898438 259.09375 167.792969 259.625 C 167.710938 260.042969 167.820312 260.175781 168.726562 260.722656 C 169.964844 261.472656 170.335938 261.917969 170.835938 263.257812 C 171.175781 264.15625 172.625 271.101562 173.488281 275.941406 C 173.671875 276.976562 173.859375 278.015625 174.046875 279.054688 C 174.1875 279.808594 174.511719 281.746094 174.769531 283.355469 C 175.027344 284.96875 175.355469 286.945312 175.503906 287.75 C 175.652344 288.554688 175.9375 290.164062 176.144531 291.320312 C 176.320312 292.328125 176.5 293.335938 176.683594 294.34375 C 176.773438 294.84375 176.984375 296.082031 177.152344 297.089844 C 177.316406 298.097656 177.613281 299.824219 177.808594 300.933594 C 178.003906 302.042969 178.414062 304.511719 178.71875 306.425781 C 179.023438 308.339844 179.351562 310.316406 179.449219 310.820312 C 180.3125 315.3125 181.546875 321.222656 182.027344 323.179688 C 182.671875 325.816406 183.199219 325.828125 183.804688 323.21875 C 184.902344 318.511719 185.585938 315.226562 186.136719 312.011719 C 186.390625 310.550781 186.886719 307.851562 187.238281 306.015625 C 187.59375 304.179688 188 301.953125 188.136719 301.070312 C 188.445312 299.113281 189.214844 294.683594 189.597656 292.695312 C 189.75 291.886719 190.203125 289.292969 190.605469 286.925781 C 193.0625 272.425781 194.496094 264.804688 195.042969 263.347656 C 195.484375 262.167969 196.332031 261.148438 197.164062 260.800781 C 197.496094 260.664062 197.859375 260.347656 197.972656 260.101562 C 198.253906 259.480469 197.730469 258.011719 196.273438 255.328125 C 194.925781 252.839844 194.710938 252.753906 193.78125 254.308594 C 192.5625 256.351562 191.441406 260.367188 190.066406 267.609375 C 189.742188 269.320312 189.242188 271.832031 188.953125 273.195312 C 188.472656 275.480469 188.207031 276.855469 186.769531 284.453125 C 185.78125 289.671875 185.113281 293.988281 184.480469 299.195312 C 184.230469 301.257812 183.945312 303.484375 183.847656 304.136719 C 183.75 304.792969 183.621094 305.78125 183.566406 306.335938 C 183.191406 309.914062 182.878906 311.246094 182.671875 310.140625 C 182.625 309.910156 182.410156 307.746094 182.1875 305.328125 C 181.484375 297.691406 181.578125 298.453125 180.417969 291.136719 C 179.777344 287.089844 179.515625 285.667969 177.984375 277.953125 C 177.496094 275.488281 177.058594 273.261719 177.011719 273.011719 C 176.382812 269.679688 174.6875 261.742188 174.191406 259.828125 C 173.238281 256.125 171.894531 253.234375 171.125 253.234375 C 170.984375 253.234375 170.699219 253.507812 170.492188 253.84375 " fill-opacity="1" fill-rule="evenodd"/></svg>